# xmcd
# 
# Track frame offsets:
#     150
#     18395
#     39289
#     56464
#     76207
#     100207
#     121357
#     141157
#     166132
#     185977
#     207101
# 
# Disc length: 3004
# 
# Revision: 1
# Processed by: cddbd v1.5.2PL0 Copyright (c) Steve Scherf et al.
# Submitted via: fre:ac v1.0.17
# 
DISCID=8d0bba0b
DTITLE=康康 - 遇见
DYEAR=0
DGENRE=Pop
TTITLE0=在路上
TTITLE1=至善至美
TTITLE2=旅途
TTITLE3=当我想你的时候
TTITLE4=迷失方向
TTITLE5=写首歌唱给你听
TTITLE6=想念
TTITLE7=至善至美
TTITLE8=被遗忘的时光
TTITLE9=爱在彩云南
TTITLE10=成长
EXTD=
EXTT0=
EXTT1=
EXTT2=
EXTT3=
EXTT4=
EXTT5=
EXTT6=
EXTT7=
EXTT8=
EXTT9=
EXTT10=
PLAYORDER=
